# xmcd CD database file
#
# Track frame offsets:
#	150
#	70332
#	120159
#	154794
#	194330
#	266034
#
# Disc length: 4438 seconds
#
# Revision: 0
# Processed by: cddbd v1.4PL0 Copyright (c) Steve Scherf et al.
# Submitted via: CDex 1.51
#
DISCID=4d115406
DTITLE=Braff Oester Rohrer - The tide is in
DYEAR=2003
DGENRE=Jazz
TTITLE0=Song Of Wonderful Things (Braff)
TTITLE1=MC Braff (Oester)
TTITLE2=Jone's Tones (Oester)
TTITLE3=My Little Suede Shoes (C.Parker)
TTITLE4=You Don't Know What Love Is (G. de Paul) - The Tide Is Back (Braff, Oester, Rohrer)
TTITLE5=New Song (Braff)
EXTD=YEAR: 2003
EXTT0=
EXTT1=
EXTT2=
EXTT3=
EXTT4=
EXTT5=
PLAYORDER=
